<svg xmlns="http://www.w3.org/2000/svg" width="261.68" height="48.168" viewBox="0 0 261.68 48.168"><defs><style>.a{fill:#2e434e;}.b{fill:#fdb813;fill-rule:evenodd;}</style></defs><g transform="translate(72.466 -48.001)"><path class="a" d="M175.28,68.728V52.674h2.764v8.072l7.484-8.072h3.394l-6.541,6.9,6.832,9.151h-3.349L180.494,61.5l-2.451,2.568v4.656Zm-172.523,0H0v-17.5H6.677c3.961,0,6.428,2.294,6.428,5.755v.05c0,3.851-3.019,5.881-6.774,5.881H2.756v5.813Zm0-14.961V60.4H6.43c2.355,0,3.871-1.355,3.871-3.292v-.05c0-2.17-1.549-3.292-3.871-3.292ZM15.913,68.728V52.674h7.012a6.268,6.268,0,0,1,4.541,1.605,4.906,4.906,0,0,1,1.3,3.463,4.813,4.813,0,0,1-3.753,4.907l4.248,6.078H26.005l-3.866-5.6H18.678v5.6H15.913Zm2.766-8.1h4.046c1.978,0,3.236-1.055,3.236-2.683,0-1.766-1.214-2.707-3.259-2.707H18.678v5.39ZM39.442,69a8.068,8.068,0,0,1-8.2-8.256A8.155,8.155,0,0,1,39.488,52.4a8.068,8.068,0,0,1,8.2,8.256A8.155,8.155,0,0,1,39.442,69Zm.045-2.592a5.377,5.377,0,0,0,5.3-5.666,5.465,5.465,0,0,0-5.35-5.756,5.376,5.376,0,0,0-5.3,5.665A5.468,5.468,0,0,0,39.488,66.412ZM56,68.843,49.464,52.674h3.057l4.742,12.339,4.72-12.339h2.99L58.432,68.843Zm11.6-.115V52.674h2.764V68.728Zm6.742,0V52.674h5.866c4.944,0,8.362,3.463,8.362,7.98a7.96,7.96,0,0,1-8.362,8.074Zm2.764-2.568h3.1a5.458,5.458,0,1,0,0-10.916h-3.1ZM98.147,68.98c-4.09,0-6.7-2.408-6.7-7.064V52.674h2.764V61.8c0,2.981,1.506,4.586,3.979,4.586,2.451,0,3.955-1.513,3.955-4.472V52.673h2.764v9.105c0,4.795-2.653,7.2-6.765,7.2Zm15.843-.023a9.586,9.586,0,0,1-6.563-2.568l1.663-2.018a7.174,7.174,0,0,0,4.967,2.087c1.708,0,2.788-.8,2.788-2.018,0-1.192-.629-1.812-3.551-2.5-3.349-.826-5.237-1.834-5.237-4.793,0-2.8,2.247-4.7,5.372-4.7a8.61,8.61,0,0,1,5.709,2.018l-1.483,2.132a7.058,7.058,0,0,0-4.27-1.65c-1.619,0-2.562.849-2.562,1.9,0,1.284.719,1.836,3.731,2.568,3.327.826,5.057,2.041,5.057,4.7,0,3.051-2.317,4.84-5.62,4.84Zm16.853-.234h-7.86V51.365H130.6a6.027,6.027,0,0,1,4.418,1.521,3.849,3.849,0,0,1,1.12,2.824v.05c0,2.039-1.033,3.084-2.682,3.959,2.116.738,3.645,1.742,3.645,4.258v.05c0,3.031-2.436,4.7-6.255,4.7Zm-5.156-14.895V58.8h4.291c1.978,0,3.4-.8,3.4-2.536v-.05c0-1.5-1.191-2.384-3.18-2.384Zm0,7.309v5.122h5.181c2.1,0,3.476-.854,3.476-2.561v-.05c0-1.61-1.277-2.511-3.7-2.511Zm13.188,7.591L145.8,52.559h2.562l6.923,16.169h-2.921l-1.6-3.876h-7.44l-1.617,3.876Zm5.462-6.375h5.417l-2.72-6.422-2.7,6.422Zm13.413,6.375V52.674h2.562l8.428,11.1v-11.1h2.72V68.728h-2.315L160.47,57.307V68.728Z" transform="translate(0 11.542)"/><path class="b" d="M60.451,15.708l3.8-6.59h37.066l.951,1.646,2.854,4.944ZM65.711,6.6,69.52,0H96.056l3.808,6.6ZM96.057,43.055H74.378a1.109,1.109,0,0,0-.964.54l-2.641,4.574H63.24l6.214-10.762a2.117,2.117,0,0,1,1.69-.885l28.681.007-3.767,6.525ZM105.1,27.39l-3.822,6.619H69.048a1.112,1.112,0,0,0-.952.511l-2.6,4.509H57.959l6.214-10.761a2.117,2.117,0,0,1,1.69-.885ZM63.724,24.87a1.1,1.1,0,0,0-.95.54L60.2,29.867H52.668L58.88,19.107a2.118,2.118,0,0,1,1.69-.886l46.01.01,1.9,3.3-1.929,3.34H63.724Z" transform="translate(-125.134 48)"/></g></svg>