<?xml version="1.0" encoding="utf-8"?>
<!-- Generator: Adobe Illustrator 24.0.3, SVG Export Plug-In . SVG Version: 6.00 Build 0)  -->
<svg version="1.1" id="Layer_1" xmlns="http://www.w3.org/2000/svg" xmlns:xlink="http://www.w3.org/1999/xlink" x="0px" y="0px"
	 viewBox="0 0 100 100" style="enable-background:new 0 0 100 100;" xml:space="preserve">
<style type="text/css">
	.st0{fill:#2E434E;}
	.st1{fill:#FDB813;}
</style>
<g id="Group_799" transform="translate(-2053 -236)">
	<path id="Rectangle_369" class="st0" d="M2079,236h48c14.4,0,26,11.6,26,26v48c0,14.4-11.6,26-26,26h-48c-14.4,0-26-11.6-26-26v-48
		C2053,247.6,2064.6,236,2079,236z"/>
	<path id="settings" class="st1" d="M2129,279.7l-4.6-0.6c-0.4-1.1-0.8-2.3-1.4-3.3l2.8-3.6c1.1-1.4,1-3.5-0.3-4.8l-3.8-3.8
		c-1.3-1.3-3.4-1.5-4.8-0.3l-3.6,2.8c-1.1-0.5-2.2-1-3.3-1.4l-0.6-4.6c-0.2-1.8-1.8-3.2-3.6-3.2h-5.5c-1.8,0-3.4,1.4-3.6,3.2
		l-0.6,4.6c-1.2,0.4-2.3,0.8-3.3,1.4l-3.6-2.8c-1.4-1.1-3.5-1-4.8,0.3l-3.8,3.8c-1.3,1.3-1.5,3.4-0.3,4.8l2.8,3.6
		c-0.5,1.1-1,2.2-1.4,3.3l-4.6,0.6c-1.8,0.2-3.2,1.8-3.2,3.6v5.5c0,1.8,1.4,3.4,3.2,3.6l4.6,0.6c0.4,1.1,0.8,2.3,1.4,3.3l-2.8,3.6
		c-1.1,1.4-1,3.5,0.3,4.8l3.8,3.8c1.3,1.3,3.4,1.4,4.8,0.3l3.6-2.8c1.1,0.6,2.2,1,3.3,1.4l0.6,4.6c0.2,1.8,1.8,3.2,3.6,3.2h5.5
		c1.8,0,3.4-1.4,3.6-3.2l0.6-4.6c1.1-0.4,2.3-0.8,3.3-1.4l3.6,2.8c1.4,1.1,3.5,1,4.8-0.3l3.8-3.8c1.3-1.3,1.5-3.4,0.3-4.8l-2.8-3.6
		c0.6-1.1,1-2.2,1.4-3.3l4.6-0.6c1.8-0.2,3.2-1.8,3.2-3.6v-5.5C2132.2,281.4,2130.8,279.9,2129,279.7z M2103,298.2
		c-6.7,0-12.2-5.4-12.2-12.2c0-6.7,5.4-12.2,12.2-12.2c6.7,0,12.2,5.4,12.2,12.2C2115.2,292.7,2109.7,298.2,2103,298.2z"/>
</g>
</svg>
