<svg xmlns="http://www.w3.org/2000/svg" width="100" height="100" viewBox="0 0 100 100">
  <g id="Group_800" data-name="Group 800" transform="translate(-2053 -236)">
    <rect id="Rectangle_369" data-name="Rectangle 369" width="100" height="100" rx="26" transform="translate(2053 236)" fill="#2e434e"/>
    <path id="path7" d="M62.235,19.308l4.677-8.1h45.56l1.169,2.023,3.508,6.077ZM68.7,8.108,73.382,0H106l4.681,8.107ZM106,52.922H79.353a1.364,1.364,0,0,0-1.185.664l-3.246,5.622h-9.26L73.3,45.98a2.6,2.6,0,0,1,2.077-1.087l35.254.009L106,52.922Zm11.117-19.254-4.7,8.136H72.8a1.367,1.367,0,0,0-1.17.628l-3.2,5.543h-9.26l7.638-13.227a2.6,2.6,0,0,1,2.077-1.087Zm-50.86-3.1a1.356,1.356,0,0,0-1.167.664l-3.163,5.478h-9.26L60.3,23.486A2.6,2.6,0,0,1,62.381,22.4l56.555.012,2.341,4.053-2.371,4.106H66.3l-.047,0Z" transform="translate(2015.947 256.711)" fill="#fdb813" fill-rule="evenodd"/>
  </g>
</svg>
