<svg xmlns="http://www.w3.org/2000/svg" width="242.672" height="242.672" viewBox="0 0 242.672 242.672"><defs><style>.a{fill:none;}.b{fill:#fdb813;}</style></defs><path class="a" d="M0,0H242.672V242.672H0Z"/><path class="b" d="M199.462,30.276a9.948,9.948,0,0,1,0,14.156L84.8,159.094a9.948,9.948,0,0,1-14.156,0L28.176,116.627a10.01,10.01,0,0,1,14.156-14.156l35.39,35.39L185.306,30.276A9.948,9.948,0,0,1,199.462,30.276ZM178.127,8.84,77.722,109.246,49.511,81.035a20.261,20.261,0,0,0-28.615,0L6.74,95.191a20.261,20.261,0,0,0,0,28.615l56.623,56.623a20.261,20.261,0,0,0,28.615,0L220.9,51.611A20.261,20.261,0,0,0,220.9,23L206.742,8.84a20.261,20.261,0,0,0-28.615,0Z" transform="translate(7.517 26.651)"/></svg>